<?xml version="1.0" encoding="UTF-8" standalone="no"?>
<svg
   xmlns:svg="http://www.w3.org/2000/svg"
   xmlns="http://www.w3.org/2000/svg"
   width="800.0"
   height="240.0"

><rect width="99999999%" height="99999999%" fill="white"/>
    <g transform="scale(11.597429990944782, -11.597429990944782)   translate(29.420972824727663,-8.46562194031191)" stroke-width="0.08622600013803017"  fill="none">
       <!-- hidden lines -->
       <g  stroke="rgb(160,160,160)" fill="none" stroke-dasharray="0.08622600013803017,0.08622600013803017" >
			<path d="M-11.043142769482404,-6.660504934454929 L12.175772797121624,-5.008266370979173 " />
			<path d="M12.175772797121624,-5.008266370979173 L13.662349708398102,-5.871805689868941 " />
			<path d="M-9.556565858205925,-7.524044253344697 L-11.043142769482403,-6.660504934454929 " />
			<path d="M-11.085616395518878,-5.243811984790277 L-11.043142769482408,-5.240789597174163 " />
			<path d="M-11.043142769482406,-5.240789597174164 L-11.043142769482406,-5.779302311315144 " />
			<path d="M-11.043142769482406,-5.779302311315144 L2.7371892334614483,-4.798705440309207 " />
			<path d="M2.737189233461449,-5.288262453164642 L2.737189233461449,-4.798705440309207 " />
			<path d="M12.175772797121624,-4.616620760694823 L2.7371892334614483,-5.288262453164642 " />
			<path d="M12.175772797121624,-5.008266370979173 L12.175772797121624,-4.616620760694823 " />
			<path d="M-11.043142769482403,-6.660504934454929 L-11.043142769482403,-7.835441765307977 " />
			<path d="M-12.175772797121624,-7.916038768404356 L-11.043142769482403,-7.835441765307977 " />
			<path d="M12.175772797121624,6.3494563272669575 L12.175772797121624,6.741101937551307 " />
			<path d="M12.175772797121624,6.3494563272669575 L12.919061252759864,5.917686667822074 " />
			<path d="M12.919061252759864,5.917686667822074 L12.919061252759864,-5.0483904201397065 " />
			<path d="M12.919061252759864,-5.0483904201397065 L12.175772797121624,-4.616620760694823 " />
			<path d="M-11.043142769482403,-7.835441765307977 L-9.556565858205925,-8.698981084197746 " />
			<path d="M-9.952986367879657,-5.874051764359993 L-11.043142769482406,-5.240789597174163 " />
			<path d="M-9.952986367879657,-5.874051764359993 L-11.085616395518878,-5.954648767456371 " />
			<path d="M-9.771293634279198,-6.518108173031944 L-11.043142769482406,-5.779302311315144 " />
			<path d="M-9.771293634279198,-3.38494329075715 L-9.771293634279198,-6.518108173031944 " />
			<path d="M-11.043142769482406,-2.6461374290403494 L-9.771293634279198,-3.3849432907571506 " />
			<path d="M-11.043142769482406,-2.6461374290403494 L-11.043142769482406,-3.1846501431813294 " />
			<path d="M-9.952986367879657,-3.8179123103671593 L-11.043142769482406,-3.1846501431813294 " />
			<path d="M-9.952986367879657,-3.8179123103671593 L-9.952986367879657,-5.874051764359993 " />
			<path d="M3.480477689099687,-5.23047509975409 L2.7371892334614474,-4.798705440309207 " />
			<path d="M4.0090383686646565,-5.537511302026007 L3.4804776890996867,-5.23047509975409 " />
			<path d="M4.0090383686646565,-5.537511302026007 L-9.771293634279198,-6.518108173031944 " />
			<path d="M3.480477689099688,-5.2304750997540905 L3.480477689099688,-5.720032112609526 " />
			<path d="M3.480477689099688,-5.720032112609526 L2.737189233461449,-5.288262453164642 " />
			<path d="M12.919061252759864,-5.0483904201397065 L3.480477689099688,-5.720032112609526 " />
			<path d="M-11.043142769482404,5.088863374075551 L-9.556565858205925,5.194646940639547 " />
			<path d="M-11.043142769482403,5.088863374075551 L-9.556565858205925,4.225324055185783 " />
			<path d="M-11.043142769482403,6.263800204928599 L-11.043142769482403,5.088863374075551 " />
			<path d="M12.175772797121624,6.3494563272669575 L2.7371892334614483,5.677814634797138 " />
			<path d="M2.737189233461449,5.188257621941703 L2.737189233461449,5.677814634797138 " />
			<path d="M2.7371892334614474,5.188257621941702 L-11.043142769482408,4.207660750935765 " />
			<path d="M-11.043142769482406,4.207660750935765 L-11.043142769482406,3.669148036794785 " />
			<path d="M-11.043142769482406,3.669148036794785 L-12.175772797121626,3.5885510336984066 " />
			<path d="M12.919061252759864,5.917686667822074 L3.480477689099688,5.2460449753522544 " />
			<path d="M2.737189233461449,5.677814634797138 L3.480477689099688,5.2460449753522544 " />
			<path d="M3.480477689099688,-4.349272476614305 L3.480477689099688,-5.2304750997540905 " />
			<path d="M9.521171169842201,-3.9194217934336195 L3.480477689099689,-4.3492724766143045 " />
			<path d="M9.521171169842201,-2.548662157438397 L9.521171169842201,-3.91942179343362 " />
			<path d="M3.480477689099688,-2.9785128406190817 L9.521171169842201,-2.548662157438397 " />
			<path d="M3.480477689099688,2.5045257033618094 L3.480477689099688,1.6233230802220238 " />
			<path d="M3.480477689099688,1.6233230802220238 L3.480477689099688,-2.097310217479296 " />
			<path d="M3.480477689099688,-2.097310217479296 L3.480477689099688,-2.9785128406190795 " />
			<path d="M9.521171169842201,2.934376386542493 L3.480477689099689,2.5045257033618085 " />
			<path d="M9.521171169842201,4.305136022537717 L9.521171169842201,2.9343763865424943 " />
			<path d="M3.480477689099688,3.8752853393570317 L9.521171169842201,4.305136022537717 " />
			<path d="M3.480477689099688,5.2460449753522544 L3.480477689099688,4.756487962496818 " />
			<path d="M3.480477689099688,4.756487962496818 L3.480477689099688,3.875285339357032 " />
			<path d="M-11.043142769482406,3.669148036794785 L-9.952986367879657,3.035885869608955 " />
			<path d="M-9.952986367879657,3.035885869608955 L-11.085616395518878,2.9552888665125767 " />
			<path d="M-9.952986367879657,0.9797464156161209 L-11.085616395518878,0.8991494125197425 " />
			<path d="M-9.952986367879657,3.035885869608955 L-9.952986367879657,0.9797464156161215 " />
			<path d="M-11.085616395518878,1.6099861951858365 L-11.043142769482408,1.6130085828019507 " />
			<path d="M-9.952986367879657,0.9797464156161209 L-11.043142769482406,1.613008582801951 " />
			<path d="M-11.043142769482406,1.613008582801951 L-11.043142769482406,1.074495868660971 " />
			<path d="M-11.043142769482406,1.074495868660971 L2.7371892334614483,2.0550927396669074 " />
			<path d="M2.737189233461449,-1.6655405580344116 L2.737189233461449,2.0550927396669083 " />
			<path d="M2.7371892334614474,-1.6655405580344125 L-11.043142769482408,-2.6461374290403494 " />
			<path d="M-11.043142769482406,-3.1846501431813294 L-12.175772797121626,-3.2652471462777077 " />
			<path d="M-9.952986367879657,-3.8179123103671593 L-11.085616395518878,-3.8985093134635376 " />
			<path d="M3.480477689099687,4.756487962496818 L2.7371892334614474,5.188257621941702 " />
			<path d="M-9.771293634279198,3.4688548892189632 L-11.043142769482406,4.207660750935765 " />
			<path d="M4.0090383686646565,4.449451760224901 L-9.771293634279198,3.4688548892189637 " />
			<path d="M3.4804776890996862,4.756487962496818 L4.0090383686646565,4.449451760224901 " />
			<path d="M-9.771293634279198,0.33569000694416873 L-11.043142769482406,1.074495868660971 " />
			<path d="M-9.771293634279198,3.4688548892189632 L-9.771293634279198,0.33569000694416884 " />
			<path d="M4.0090383686646565,-2.4043464197512137 L4.0090383686646565,-5.537511302026008 " />
			<path d="M3.4804776890996862,-2.097310217479296 L4.0090383686646565,-2.4043464197512137 " />
			<path d="M3.480477689099688,-2.9785128406190817 L3.9429682837190367,-3.2471695176070097 " />
			<path d="M3.9429682837190363,-4.617929153602232 L3.9429682837190363,-3.24716951760701 " />
			<path d="M3.480477689099688,-4.3492724766143045 L3.9429682837190367,-4.617929153602232 " />
			<path d="M9.521171169842201,-3.9194217934336195 L9.98366176446155,-4.188078470421547 " />
			<path d="M9.98366176446155,-4.188078470421547 L3.942968283719037,-4.6179291536022316 " />
			<path d="M9.521171169842201,-2.548662157438397 L9.98366176446155,-2.817318834426325 " />
			<path d="M9.98366176446155,-2.8173188344263247 L9.98366176446155,-4.188078470421547 " />
			<path d="M3.9429682837190363,-3.2471695176070092 L9.983661764461548,-2.8173188344263247 " />
			<path d="M4.0090383686646565,1.3162868779501053 L3.4804776890996867,1.6233230802220229 " />
			<path d="M4.0090383686646565,4.449451760224901 L4.0090383686646565,1.3162868779501062 " />
			<path d="M3.480477689099688,3.8752853393570317 L3.9429682837190367,3.6066286623691037 " />
			<path d="M3.9429682837190363,2.235869026373881 L3.9429682837190363,3.6066286623691033 " />
			<path d="M3.480477689099688,2.5045257033618085 L3.9429682837190367,2.2358690263738805 " />
			<path d="M3.480477689099687,-2.097310217479296 L2.7371892334614474,-1.6655405580344123 " />
			<path d="M2.7371892334614474,2.055092739666908 L3.480477689099687,1.6233230802220233 " />
			<path d="M9.521171169842201,2.934376386542493 L9.98366176446155,2.665719709554565 " />
			<path d="M9.98366176446155,2.6657197095545655 L3.942968283719037,2.235869026373881 " />
			<path d="M9.521171169842201,4.305136022537717 L9.98366176446155,4.036479345549789 " />
			<path d="M9.98366176446155,4.036479345549789 L9.98366176446155,2.6657197095545664 " />
			<path d="M3.9429682837190363,3.606628662369104 L9.983661764461548,4.036479345549789 " />
			<path d="M4.0090383686646565,1.3162868779501053 L-9.771293634279198,0.3356900069441686 " />
			<path d="M4.0090383686646565,-2.4043464197512137 L-9.771293634279198,-3.3849432907571506 " />

       </g>

       <!-- solid lines -->
       <g  stroke="rgb(0,0,0)" fill="none">
			<path d="M-9.556565858205927,-7.524044253344697 L13.662349708398102,-5.871805689868941 " />
			<path d="M-12.175772797121624,-7.916038768404356 L-12.175772797121624,-5.321386600270541 " />
			<path d="M-12.175772797121628,-5.321386600270541 L-11.085616395518878,-5.243811984790277 " />
			<path d="M13.662349708398102,-5.871805689868941 L13.662349708398102,5.877562618661539 " />
			<path d="M12.175772797121624,6.741101937551307 L13.662349708398102,5.877562618661539 " />
			<path d="M-10.689195885845146,-8.779578087294123 L-9.556565858205925,-8.698981084197744 " />
			<path d="M-9.556565858205925,-8.698981084197746 L-9.556565858205925,-7.524044253344697 " />
			<path d="M-9.556565858205927,4.225324055185783 L13.662349708398102,5.877562618661539 " />
			<path d="M-9.556565858205925,4.225324055185783 L-9.556565858205925,5.400260886038831 " />
			<path d="M-10.689195885845146,5.319663882942453 L-9.556565858205925,5.400260886038831 " />
			<path d="M-10.689195885845146,5.319663882942453 L-10.689195885845146,-8.779578087294123 " />
			<path d="M-12.175772797121624,-7.916038768404356 L-10.689195885845146,-8.779578087294123 " />
			<path d="M-11.085616395518878,-5.954648767456371 L-12.175772797121628,-5.321386600270541 " />
			<path d="M-11.085616395518878,-3.8985093134635376 L-11.085616395518878,-5.954648767456371 " />
			<path d="M-12.175772797121628,-3.2652471462777077 L-11.085616395518878,-3.8985093134635376 " />
			<path d="M-12.175772797121624,-3.265247146277707 L-12.175772797121624,1.5324115797055722 " />
			<path d="M-11.085616395518878,0.8991494125197426 L-12.175772797121628,1.5324115797055726 " />
			<path d="M-11.085616395518878,2.9552888665125767 L-11.085616395518878,0.8991494125197432 " />
			<path d="M-12.175772797121628,3.5885510336984066 L-11.085616395518878,2.9552888665125767 " />
			<path d="M-12.175772797121624,3.5885510336984066 L-12.175772797121624,6.183203201832221 " />
			<path d="M-10.689195885845146,5.319663882942453 L-12.175772797121624,6.183203201832221 " />
			<path d="M-9.556565858205925,5.194646940639547 L12.175772797121624,6.741101937551307 " />
			<path d="M-12.175772797121624,6.183203201832221 L-11.043142769482403,6.263800204928599 " />
			<path d="M-9.556565858205925,5.400260886038831 L-11.043142769482403,6.263800204928599 " />
			<path d="M-12.175772797121628,1.5324115797055724 L-11.085616395518878,1.6099861951858365 " />

       </g>
    </g>
    <g transform="translate(20,210.0)" stroke="rgb(0,0,255)">
        <line x1="30" y1="-30" x2="75" y2="-33" stroke-width="3" stroke="#000000" />
         <text x="80" y="-30" style="stroke:#000000">X </text>

        <line x1="30" y1="-30" x2="30" y2="-75" stroke-width="3" stroke="#000000" />
         <text x="25" y="-85" style="stroke:#000000">Y </text>

        <line x1="30" y1="-30" x2="58" y2="-15" stroke-width="3" stroke="#000000" />
         <text x="65" y="-5" style="stroke:#000000">Z </text>
        <!--
            <line x1="0" y1="0" x2="11.597429990944782" y2="0" stroke-width="3" />
            <text x="0" y="20" style="stroke:#000000">1  mm </text>
        -->
    </g>
</svg>
