<?xml version="1.0" encoding="UTF-8" standalone="no"?>
<svg
   xmlns:svg="http://www.w3.org/2000/svg"
   xmlns="http://www.w3.org/2000/svg"
   width="800.0"
   height="240.0"

><rect width="99999999%" height="99999999%" fill="white"/>
    <g transform="scale(11.085339649916008, -11.085339649916008)   translate(30.449514866126272,-9.174897081816008)" stroke-width="0.09020923413993696"  fill="none">
       <!-- hidden lines -->
       <g  stroke="rgb(160,160,160)" fill="none" stroke-dasharray="0.09020923413993696,0.09020923413993696" >
			<path d="M-11.175282939373647,5.55726803492788 L2.605049063570208,6.537864905933817 " />
			<path d="M2.6050490635702084,6.537864905933818 L2.6050490635702084,-5.9947946231653635 " />
			<path d="M-10.557055715953904,-6.931398963314526 L2.605049063570208,-5.994794623165363 " />
			<path d="M-11.051309067487326,-5.497898578829288 L2.3514795929101204,-4.544167375522144 " />
			<path d="M2.3514795929101218,-4.544167375522144 L2.3514795929101218,-1.8026481035316988 " />
			<path d="M2.3514795929101218,-1.8026481035316984 L-10.557055715953904,-2.72120865275777 " />
			<path d="M-11.051309067487326,1.3558996011468254 L2.3514795929101204,2.3096308044539695 " />
			<path d="M2.3514795929101218,2.3096308044539695 L2.3514795929101218,5.051150076444415 " />
			<path d="M2.3514795929101218,5.051150076444415 L-10.557055715953904,4.132589527218343 " />
			<path d="M-10.190341207085474,5.231301375019781 L-9.179022515659518,4.6438353331689255 " />
			<path d="M-9.424425688314683,4.540210614902153 L-9.367983826244489,4.545250170116643 L-9.31602089895689,4.551993105759204 L-9.269771056704768,4.560279273120692 L-9.230332760592809,4.5699118708260045 L-9.198642693476668,4.5806621189831205 L-9.175453513191199,4.592274692840836 L-9.161315976481786,4.6044737869025925 L-9.157755155810882,4.610703094140679 L-9.156565858205925,4.6169696654701315 " />
			<path d="M-9.156565858205925,4.616969665470132 L-9.157981896106698,4.623806585634633 L-9.162219983992333,4.630595099108747 L-9.179022515659518,4.6438353331689255 " />
			<path d="M4.35590631462917,5.52080748590809 L-9.424425688314685,4.540210614902153 " />
			<path d="M4.355906314629172,5.520807485908091 L2.605049063570209,6.5378649059338185 " />
			<path d="M2.5389789786245855,-6.739706318450071 L4.421976399574791,-7.833522789043777 " />
			<path d="M2.5389789786245855,-6.739706318450072 L2.5195509762614825,-6.725591943511714 L2.500310076181563,-6.705955855736254 L2.481441578770742,-6.680987161383147 L2.4631271979736553,-6.650926322628291 L2.4455433112890383,-6.6160628417818215 L2.4288592611579944,-6.576732473222607 L2.4132357241037146,-6.533313989900038 L2.3988231633287254,-6.48622553554347 L2.3857603796719977,-6.435920597709523 L2.3741731748809896,-6.382883640449014 L2.355856581046961,-6.270678159012918 L2.3445772782556165,-6.153921084961211 L2.340768723787722,-6.03709932717158 " />
			<path d="M4.421976399574791,-7.833522789043777 L4.443395736199156,-7.84252485878248 L4.464564208273528,-7.844541030569804 " />
			<path d="M2.340768723787722,-6.037099327171578 L2.340768723787722,6.887205812211952 " />
			<path d="M2.496391169925847,7.370553893312532 L2.480178420299044,7.367246861160045 L2.4643866660547054,7.359678511072609 L2.4491289716909783,7.347903030298277 L2.434514577988174,7.332004727952022 L2.4206481198756467,7.3120974313862925 L2.407628877275267,7.28832367121934 L2.3955500642852345,7.260853660856257 L2.384498161793474,7.229884077809103 L2.365783683373794,7.15835659591963 L2.3520204441924872,7.075786025176913 L2.343601902338488,6.98453286070413 L2.340768723787722,6.887205812211952 " />
			<path d="M2.6050490635702084,-5.9947946231653635 L4.355906314629172,-7.011852043191091 " />
			<path d="M4.355906314629172,-7.01185204319109 L4.355906314629172,5.520807485908091 " />
			<path d="M-9.990740702134298,-8.816038636313914 L-9.424425688314683,-8.775740134765725 " />
			<path d="M-9.424425688314683,-8.775740134765725 L-9.367983826244489,-8.770700579551235 L-9.31602089895689,-8.763957643908675 L-9.269771056704768,-8.755671476547187 L-9.230332760592809,-8.746038878841874 L-9.198642693476668,-8.735288630684757 L-9.175453513191199,-8.723676056827042 L-9.161315976481786,-8.711476962765285 L-9.157755155810882,-8.705247655527199 L-9.156565858205925,-8.698981084197746 " />
			<path d="M-9.156565858205925,-8.698981084197746 L-9.157981896106698,-8.692144164033245 L-9.162219983992333,-8.685355650559131 L-9.179022515659518,-8.672115416498952 " />
			<path d="M-10.557055715953904,-7.871628174861453 L-9.179022515659518,-8.672115416498952 " />
			<path d="M-9.179022515659518,-7.888824195930254 L-10.557055715953904,-7.088336954292754 " />
			<path d="M-9.424425688314683,-7.992448914197026 L-9.367983826244489,-7.987409358982537 L-9.31602089895689,-7.980666423339976 L-9.269771056704768,-7.9723802559784875 L-9.230332760592809,-7.962747658273175 L-9.198642693476668,-7.951997410116059 L-9.175453513191199,-7.940384836258343 L-9.161315976481786,-7.928185742196587 L-9.157755155810882,-7.9219564349585 L-9.156565858205925,-7.915689863629048 " />
			<path d="M-9.156565858205925,-7.915689863629047 L-9.157981896106698,-7.908852943464546 L-9.162219983992333,-7.902064429990433 L-9.179022515659518,-7.888824195930254 " />
			<path d="M-9.424425688314685,-7.992448914197026 L4.35590631462917,-7.011852043191089 " />
			<path d="M-10.557055715953904,-5.498077951981888 L-7.2569984748959335,-5.486384721244091 " />
			<path d="M-7.256998474895937,-5.486384721244091 L-0.6499899803338156,-5.016235536515217 " />
			<path d="M2.3514795929101218,-4.544167375522144 L2.354783097157403,-4.546086351786343 " />
			<path d="M2.3547830971574033,-4.546086351786344 L-0.6499899803338143,-5.016235536515218 " />
			<path d="M2.354783097157403,-4.546086351786343 L2.354783097157403,-1.804567079795898 " />
			<path d="M2.3514795929101218,-1.8026481035316984 L2.354783097157403,-1.804567079795898 " />
			<path d="M2.3547830971574033,-1.804567079795898 L-0.6499899803338143,-2.2747162645247716 " />
			<path d="M-0.6499899803338138,-2.274716264524772 L-7.256998474895936,-2.7448654492536457 " />
			<path d="M-10.557055715953904,-2.756558679991442 L-7.256998474895935,-2.7448654492536453 " />
			<path d="M-10.557055715953904,1.3557202279942262 L-7.2569984748959335,1.3674134587320226 " />
			<path d="M-7.256998474895937,1.3674134587320224 L-0.6499899803338156,1.837562643460896 " />
			<path d="M2.3514795929101218,2.3096308044539695 L2.354783097157403,2.30771182818977 " />
			<path d="M2.3547830971574033,2.30771182818977 L-0.6499899803338143,1.8375626434608963 " />
			<path d="M2.354783097157403,2.30771182818977 L2.354783097157403,5.049231100180215 " />
			<path d="M2.3514795929101218,5.051150076444415 L2.354783097157403,5.049231100180216 " />
			<path d="M2.3547830971574033,5.049231100180215 L-0.6499899803338143,4.579081915451341 " />
			<path d="M-0.6499899803338138,4.579081915451342 L-7.256998474895936,4.108932730722468 " />
			<path d="M-10.557055715953904,4.0972394999846715 L-7.256998474895935,4.108932730722468 " />
			<path d="M-9.990740702134298,-8.816038636313916 L-10.030432541809628,-8.817418382685485 L-10.06992916258221,-8.815901959643575 L-10.109036305706852,-8.811496825508206 L-10.147561628031086,-8.804224646331122 L-10.18531564800874,-8.79412118933428 L-10.222112677639085,-8.781236146993646 L-10.257771735747966,-8.765632892633509 L-10.292117438119027,-8.747388168733446 " />
			<path d="M-9.424425688314683,4.540210614902153 L-9.424425688314683,5.323501835470852 " />
			<path d="M-9.424425688314683,-8.775740134765725 L-9.424425688314683,-7.992448914197026 " />
			<path d="M-7.256998474895934,-2.7448654492536453 L-7.256998474895934,-5.48638472124409 " />
			<path d="M-0.649989980333814,-5.016235536515218 L-0.649989980333814,-2.274716264524773 " />
			<path d="M-7.256998474895934,4.108932730722468 L-7.256998474895934,1.3674134587320226 " />
			<path d="M-0.649989980333814,1.8375626434608963 L-0.649989980333814,4.579081915451342 " />
			<path d="M-9.156565858205926,4.616969665470132 L-9.156565858205926,5.400260886038831 " />
			<path d="M-9.156565858205926,-8.698981084197746 L-9.156565858205926,-7.915689863629047 " />

       </g>

       <!-- solid lines -->
       <g  stroke="rgb(0,0,0)" fill="none">
			<path d="M-11.74159795319326,6.300260753948388 L-11.175282939373645,6.3405592554965775 " />
			<path d="M-11.74159795319326,6.30026075394839 L-11.797106531373554,6.293481989075339 L-11.852080531601896,6.281110865430207 L-11.905990524204242,6.263266523696437 L-11.958317326481632,6.240120814639638 L-12.008557002723395,6.211896644090756 L-12.05622571738352,6.17886582624108 L-12.100864394681462,6.141346465922982 L-12.14204313975286,6.099699895086495 L-12.179365378772081,6.054327192975106 L-12.212471678174962,6.00566532351339 L-12.241043206200507,5.9541829271055455 L-12.264804803415045,5.900375807372122 L-12.283527632647989,5.844762156290116 L-12.297031382818886,5.7878775637209605 L-12.30518600543169,5.730269859387379 L-12.307912967012872,5.672493836973683 " />
			<path d="M-11.175282939373645,6.3405592554965775 L-11.175282939373645,5.55726803492788 " />
			<path d="M-12.307912967012866,5.672493836973676 L-12.307912967012866,-7.251811302409853 " />
			<path d="M-12.30791296701287,-7.251811302409852 L-12.306785844818108,-7.28877696613833 L-12.303408964798408,-7.325435076108146 L-12.297795768788529,-7.361639712933954 L-12.289968600387533,-7.397246762302258 L-12.27995861601901,-7.4321144886254285 L-12.267805660911412,-7.466104099227092 L-12.253558110492191,-7.499080296813108 L-12.237272677827072,-7.530911818029013 L-12.219014187870924,-7.561471955960177 L-12.198855319428905,-7.590639064494819 L-12.176876315854935,-7.618297042542257 L-12.153164665639137,-7.644335796178939 L-12.127814754155661,-7.66865167688264 L-12.100927487957119,-7.691147894110439 L-12.072609893111153,-7.711734900578166 L-12.042974689177996,-7.730330748707714 " />
			<path d="M-12.042974689177992,-7.730330748707717 L-12.00862898680693,-7.74857547260778 L-11.972969928698047,-7.764178726967917 L-11.936172899067703,-7.777063769308554 L-11.89841887909005,-7.787167226305394 L-11.859893556765813,-7.7944394054824775 L-11.820786413641171,-7.798844539617848 L-11.78128979286859,-7.800360962659758 L-11.74159795319326,-7.798981216288189 " />
			<path d="M-11.74159795319326,-7.798981216288188 L-11.175282939373645,-7.758682714739998 " />
			<path d="M-11.175282939373647,-6.9753914941712996 L-10.557055715953904,-6.931398963314526 " />
			<path d="M-11.175282939373645,-6.9753914941712996 L-11.175282939373645,-7.758682714739998 " />
			<path d="M-10.557055715953904,-2.72120865275777 L-11.051309067487324,-2.7563793068388422 " />
			<path d="M-11.051309067487326,-2.7563793068388422 L-11.051309067487326,-5.497898578829288 " />
			<path d="M-10.557055715953904,4.132589527218343 L-11.051309067487324,4.097418873137271 " />
			<path d="M-11.051309067487326,4.097418873137271 L-11.051309067487326,1.355899601146826 " />
			<path d="M2.5389789786245855,7.359535651786506 L4.421976399574791,6.265719181192799 " />
			<path d="M-9.990740702134298,5.283203333922661 L-9.424425688314683,5.323501835470851 " />
			<path d="M-11.175282939373645,6.3405592554965775 L-11.099088850789292,6.344325583625936 L-11.020744785675237,6.344997366611107 L-10.94326146251796,6.342548788208713 L-10.869616521973242,6.337073945913578 L-10.802640097805662,6.328783234844778 L-10.744906056435166,6.317995262379203 L-10.698633084694,6.305124604248738 L-10.665599426935996,6.290665872627391 " />
			<path d="M-9.424425688314683,5.323501835470852 L-9.367983826244489,5.328541390685341 L-9.31602089895689,5.335284326327902 L-9.269771056704768,5.34357049368939 L-9.230332760592809,5.353203091394703 L-9.198642693476668,5.363953339551819 L-9.175453513191199,5.375565913409535 L-9.161315976481786,5.387765007471291 L-9.157755155810882,5.393994314709378 L-9.156565858205925,5.40026088603883 " />
			<path d="M-9.156565858205925,5.400260886038831 L-9.157981896106698,5.407097806203332 L-9.162219983992333,5.413886319677445 L-9.179022515659518,5.427126553737624 " />
			<path d="M-9.179022515659518,5.427126553737624 L-10.665599426935996,6.290665872627392 " />
			<path d="M-11.175282939373647,5.557268034927879 L-11.099088850789293,5.561034363057237 L-11.02074478567524,5.561706146042408 L-10.943261462517961,5.559257567640014 L-10.869616521973244,5.553782725344879 L-10.802640097805664,5.545492014276079 L-10.744906056435168,5.534704041810504 L-10.698633084694002,5.52183338368004 L-10.665599426935998,5.507374652058693 " />
			<path d="M-10.665599426935996,5.507374652058694 L-10.190341207085474,5.231301375019781 " />
			<path d="M4.464564208273529,-7.844541030569804 L4.480776957900332,-7.841233998417318 L4.496568712144671,-7.833665648329881 L4.511826406508398,-7.82189016755555 L4.526440800211202,-7.805991865209294 L4.54030725832373,-7.786084568643565 L4.5533265009241095,-7.762310808476612 L4.565405313914142,-7.734840798113529 L4.5764572164059025,-7.703871215066377 L4.5951716948255825,-7.632343733176902 L4.608934934006889,-7.549773162434185 L4.617353475860889,-7.458519997961401 L4.620186654411655,-7.3611929494692285 " />
			<path d="M4.620186654411654,-7.361192949469223 L4.620186654411654,5.563112189914307 " />
			<path d="M2.5389789786245855,7.359535651786505 L2.517559642000221,7.3685377215252075 L2.496391169925849,7.370553893312532 " />
			<path d="M4.421976399574791,6.265719181192799 L4.441404401937894,6.251604806254441 L4.460645302017814,6.231968718478981 L4.479513799428634,6.207000024125875 L4.497828180225721,6.176939185371019 L4.515412066910338,6.142075704524549 L4.532096117041382,6.102745335965334 L4.547719654095662,6.059326852642766 L4.562132214870651,6.012238398286198 L4.575194998527379,5.961933460452251 L4.5867822033183865,5.908896503191742 L4.605098797152416,5.796691021755645 L4.61637809994376,5.679933947703939 L4.620186654411655,5.563112189914311 " />
			<path d="M-11.175282939373647,-7.758682714739996 L-11.099088850789293,-7.754916386610638 L-11.02074478567524,-7.754244603625467 L-10.943261462517961,-7.7566931820278615 L-10.869616521973244,-7.762168024322996 L-10.802640097805664,-7.770458735391797 L-10.744906056435168,-7.781246707857373 L-10.698633084694002,-7.794117365987837 L-10.665599426935998,-7.808576097609184 " />
			<path d="M-10.665599426935996,-7.808576097609184 L-10.557055715953904,-7.871628174861453 " />
			<path d="M-11.175282939373645,-6.975391494171299 L-11.099088850789292,-6.971625166041941 L-11.020744785675237,-6.970953383056769 L-10.94326146251796,-6.973401961459164 L-10.869616521973242,-6.978876803754298 L-10.802640097805662,-6.987167514823099 L-10.744906056435166,-6.997955487288675 L-10.698633084694,-7.01082614541914 L-10.665599426935996,-7.0252848770404865 " />
			<path d="M-10.557055715953904,-7.088336954292754 L-10.665599426935996,-7.025284877040486 " />
			<path d="M-11.051309067487326,-5.497898578829288 L-11.048005563240045,-5.499817555093487 " />
			<path d="M-11.048005563240043,-5.499817555093488 L-10.557055715953904,-5.498077951981888 " />
			<path d="M-11.051309067487326,-2.7563793068388422 L-11.048005563240045,-2.758298283103042 " />
			<path d="M-11.048005563240046,-2.758298283103042 L-10.557055715953904,-2.756558679991442 " />
			<path d="M-11.048005563240045,-2.758298283103042 L-11.048005563240045,-5.499817555093487 " />
			<path d="M-11.051309067487326,1.3558996011468254 L-11.048005563240045,1.3539806248826258 " />
			<path d="M-11.048005563240043,1.353980624882626 L-10.557055715953904,1.3557202279942262 " />
			<path d="M-11.051309067487326,4.097418873137271 L-11.048005563240045,4.095499896873072 " />
			<path d="M-11.048005563240046,4.095499896873071 L-10.557055715953904,4.0972394999846715 " />
			<path d="M-11.048005563240045,4.095499896873072 L-11.048005563240045,1.353980624882627 " />
			<path d="M-9.990740702134298,5.283203333922662 L-10.046249280314592,5.276424569049613 L-10.101223280542934,5.26405344540448 L-10.15513327314528,5.246209103670711 L-10.20746007542267,5.223063394613911 L-10.257699751664433,5.19483922406503 L-10.305368466324557,5.1618084062153535 L-10.3500071436225,5.124289045897256 L-10.391185888693897,5.082642475060768 L-10.428508127713119,5.037269772949379 L-10.461614427116,4.988607903487663 L-10.490185955141545,4.937125507079819 L-10.513947552356083,4.883318387346396 L-10.532670381589027,4.82770473626439 L-10.546174131759924,4.770820143695234 L-10.554328754372728,4.713212439361652 L-10.557055715953908,4.655436416947955 " />
			<path d="M-10.557055715953904,4.65543641694795 L-10.557055715953904,-8.26886872243558 " />
			<path d="M-10.292117438119028,-8.747388168733444 L-10.321752642052191,-8.728792320603894 L-10.350070236898157,-8.708205314136167 L-10.3769575030967,-8.685709096908369 L-10.402307414580175,-8.661393216204667 L-10.426019064795973,-8.635354462567985 L-10.447998068369943,-8.607696484520547 L-10.468156936811962,-8.578529375985905 L-10.486415426768108,-8.54796923805474 L-10.50270085943323,-8.516137716838836 L-10.51694840985245,-8.48316151925282 L-10.529101364960049,-8.449171908651156 L-10.539111349328572,-8.414304182327985 L-10.546938517729567,-8.378697132959681 L-10.552551713739446,-8.342492496133874 L-10.555928593759146,-8.305834386164058 L-10.557055715953908,-8.268868722435585 " />
			<path d="M-11.807668038138882,6.33864027923238 L2.538978978624586,7.359535651786506 " />
			<path d="M-9.924670617188676,5.2448238086386745 L4.421976399574792,6.2657191811928 " />
			<path d="M-11.807668038138882,6.33864027923238 L-11.741597953193262,6.30026075394839 " />
			<path d="M-9.990740702134298,5.283203333922663 L-9.924670617188676,5.244823808638674 " />
			<path d="M-11.807668038138882,6.3386402792323775 L-11.863176616319175,6.331861514359328 L-11.918150616547518,6.319490390714195 L-11.972060609149864,6.301646048980426 L-12.024387411427254,6.278500339923626 L-12.074627087669015,6.250276169374745 L-12.122295802329141,6.217245351525069 L-12.166934479627084,6.17972599120697 L-12.208113224698481,6.138079420370484 L-12.245435463717703,6.092706718259095 L-12.278541763120584,6.044044848797378 L-12.307113291146129,5.992562452389533 L-12.330874888360666,5.93875533265611 L-12.34959771759361,5.883141681574104 L-12.363101467764508,5.826257089004948 L-12.371256090377312,5.768649384671367 L-12.373983051958493,5.71087336225767 " />
			<path d="M-12.373983051958492,5.710873362257667 L-12.307912967012872,5.672493836973676 " />
			<path d="M-10.665599426935996,6.290665872627392 L-10.665599426935996,5.507374652058695 " />
			<path d="M-12.373983051958492,-7.213431777125862 L-12.307912967012872,-7.251811302409853 " />
			<path d="M-12.373983051958492,-7.213431777125863 L-12.373983051958492,5.710873362257667 " />
			<path d="M-12.373983051958493,-7.213431777125863 L-12.37285592976373,-7.250397440854341 L-12.36947904974403,-7.2870555508241575 L-12.36386585373415,-7.323260187649965 L-12.356038685333155,-7.358867237018268 L-12.346028700964633,-7.393734963341439 L-12.333875745857034,-7.427724573943102 L-12.319628195437813,-7.460700771529119 L-12.303342762772692,-7.492532292745024 L-12.285084272816546,-7.523092430676188 L-12.264925404374527,-7.552259539210829 L-12.242946400800557,-7.579917517258268 L-12.219234750584759,-7.60595627089495 L-12.193884839101283,-7.630272151598652 L-12.16699757290274,-7.652768368826449 L-12.138679978056775,-7.673355375294176 L-12.109044774123618,-7.691951223423725 " />
			<path d="M-10.665599426935996,-7.025284877040486 L-10.665599426935996,-7.808576097609185 " />
			<path d="M-11.807668038138882,6.3386402792323775 L-11.829087374763247,6.34764234897108 L-11.850255846837618,6.349658520758404 " />
			<path d="M-9.924670617188676,5.244823808638673 L-9.905242614825573,5.230709433700315 L-9.886001714745653,5.211073345924855 L-9.867133217334832,5.186104651571748 L-9.848818836537745,5.156043812816892 L-9.83123494985313,5.1211803319704226 L-9.814550899722084,5.081849963411208 L-9.798927362667804,5.038431480088639 L-9.784514801892815,4.99134302573207 L-9.771452018236088,4.941038087898123 L-9.75986481344508,4.8880011306376145 L-9.741548219611051,4.775795649201518 L-9.730268916819707,4.659038575149811 L-9.726460362351812,4.542216817360184 " />
			<path d="M-9.726460362351812,4.54221681736018 L4.620186654411656,5.563112189914306 " />
			<path d="M-10.557055715953908,4.65543641694795 L-10.490985631008286,4.61705689166396 " />
			<path d="M-10.490985631008286,4.617056891663959 L-10.488258669427108,4.674832914077662 L-10.480104046814303,4.7324406184112435 L-10.466600296643405,4.789325210980398 L-10.44787746741046,4.8449388620624045 L-10.424115870195923,4.8987459817958285 L-10.395544342170378,4.950228378203673 L-10.362438042767497,4.99889024766539 L-10.325115803748277,5.044262949776779 L-10.28393705867688,5.085909520613265 L-10.239298381378937,5.123428880931363 L-10.19162966671881,5.15645969878104 L-10.141389990477048,5.1846838693299215 L-10.089063188199658,5.207829578386721 L-10.035153195597312,5.2256739201204905 L-9.98017919536897,5.238045043765623 L-9.924670617188681,5.244823808638673 " />
			<path d="M-9.179022515659518,5.373395218340038 L-9.179022515659518,5.427126553737624 " />
			<path d="M-12.407668038138882,5.751171863805854 L-12.405543981287723,5.7409164835591024 L-12.39918684945927,5.730733713347933 L-12.388641652351566,5.720695649115113 L-12.373983051958493,5.710873362257665 " />
			<path d="M-12.373983051958492,-7.213431777125864 L-12.388641652351566,-7.203609490268415 L-12.39918684945927,-7.193571426035596 L-12.405543981287723,-7.183388655824426 L-12.407668038138882,-7.173133275577675 " />
			<path d="M-9.726460362351812,-8.38208832202335 L-9.729293540902578,-8.479415370515529 L-9.737712082756579,-8.570668534988313 L-9.751475321937884,-8.653239105731029 L-9.770189800357564,-8.724766587620504 L-9.781241702849325,-8.755736170667657 L-9.793320515839358,-8.783206181030739 L-9.806339758439737,-8.806979941197692 L-9.820206216552265,-8.826887237763422 L-9.834820610255068,-8.842785540109677 L-9.850078304618796,-8.85456102088401 L-9.865870058863134,-8.862129370971445 L-9.882082808489937,-8.865436403123931 " />
			<path d="M-9.726460362351812,-8.382088322023348 L4.620186654411656,-7.361192949469222 " />
			<path d="M-9.726460362351812,-8.38208832202335 L-9.726460362351812,4.542216817360181 " />
			<path d="M-10.557055715953908,-8.26886872243558 L-10.490985631008286,-8.307248247719569 " />
			<path d="M-10.490985631008286,-8.30724824771957 L-10.489858508813525,-8.344213911448048 L-10.486481628793824,-8.380872021417865 L-10.480868432783945,-8.417076658243673 L-10.47304126438295,-8.452683707611975 L-10.463031280014427,-8.487551433935145 L-10.450878324906828,-8.521541044536809 L-10.436630774487607,-8.554517242122825 L-10.420345341822486,-8.586348763338732 L-10.40208685186634,-8.616908901269895 L-10.38192798342432,-8.646076009804537 L-10.359948979850351,-8.673733987851975 L-10.336237329634553,-8.699772741488657 L-10.310887418151077,-8.724088622192358 L-10.284000151952533,-8.746584839420157 L-10.255682557106569,-8.767171845887884 L-10.226047353173412,-8.785767694017432 " />
			<path d="M-10.490985631008286,4.617056891663959 L-10.468830667064005,4.605965386016987 L-10.44143514437128,4.5953687942319394 L-10.37202568675953,4.576062807036243 L-10.285424624703786,4.559880848337879 L-10.184959988452416,4.547444781734678 L-10.07449257763534,4.539232518291976 L-9.958267592899423,4.535559650688385 L-9.840751495228343,4.536567325166143 L-9.726460362351817,4.5422168173601785 " />
			<path d="M-10.490985631008286,-8.30724824771957 L-10.490985631008286,4.61705689166396 " />
			<path d="M-9.726460362351812,-8.38208832202335 L-9.840751495228343,-8.387737814217386 L-9.958267592899423,-8.388745488695145 L-10.07449257763534,-8.385072621091552 L-10.184959988452416,-8.376860357648852 L-10.285424624703786,-8.364424291045651 L-10.37202568675953,-8.348242332347287 L-10.44143514437128,-8.328936345151591 L-10.468830667064005,-8.318339753366542 L-10.490985631008284,-8.30724824771957 " />
			<path d="M-12.109044774123612,-7.691951223423726 L-12.042974689177992,-7.730330748707717 " />
			<path d="M-11.85025584683762,6.349658520758406 L2.4963911699258485,7.370553893312532 " />
			<path d="M-11.85025584683762,6.349658520758404 L-11.918864660907285,6.340777928127534 L-11.985995167060581,6.324058794264687 L-12.050754896118086,6.299723392358822 L-12.11228289729061,6.268095250376796 L-12.169761184123645,6.2295948499079605 L-12.222425609250758,6.184734036054976 L-12.269576023381095,6.134109212688774 L-12.31058558346193,6.078393413533617 L-12.344909086268517,6.018327354493526 L-12.372090216630005,5.954709586175286 L-12.391767613929595,5.888385877525698 L-12.403679676227615,5.820237971722735 L-12.407668038138882,5.751171863805855 " />
			<path d="M-12.407668038138882,-7.173133275577674 L-12.407668038138882,5.7511718638058555 " />
			<path d="M-12.407668038138882,-7.173133275577674 L-12.404397784207148,-7.235692129126167 L-12.394622670947877,-7.297569038218721 L-12.378449255369627,-7.3580894921711915 L-12.356053841392018,-7.416593766808616 L-12.32768055798376,-7.472444116017143 L-12.293638697950255,-7.525031723716478 L-12.254299346380234,-7.573783340470491 L-12.210091335504176,-7.618167532391286 L-12.161496570060018,-7.657700474218414 L-12.109044774123612,-7.691951223423728 " />
			<path d="M-9.882082808489939,-8.86543640312393 L4.464564208273529,-7.844541030569804 " />
			<path d="M-10.292117438119028,-8.747388168733444 L-10.226047353173408,-8.785767694017434 " />
			<path d="M-10.226047353173406,-8.785767694017434 L-10.17299310501741,-8.813151121159168 L-10.117480046684939,-8.835126236266955 L-10.060057850797065,-8.851475448750717 L-10.001295093646812,-8.862036873916148 L-9.941773625337815,-8.86670593589538 L-9.882082808489937,-8.865436403123931 " />

       </g>
    </g>
    <g transform="translate(20,210.0)" stroke="rgb(0,0,255)">
        <line x1="30" y1="-30" x2="75" y2="-33" stroke-width="3" stroke="#000000" />
         <text x="80" y="-30" style="stroke:#000000">X </text>

        <line x1="30" y1="-30" x2="30" y2="-75" stroke-width="3" stroke="#000000" />
         <text x="25" y="-85" style="stroke:#000000">Y </text>

        <line x1="30" y1="-30" x2="58" y2="-15" stroke-width="3" stroke="#000000" />
         <text x="65" y="-5" style="stroke:#000000">Z </text>
        <!--
            <line x1="0" y1="0" x2="11.085339649916008" y2="0" stroke-width="3" />
            <text x="0" y="20" style="stroke:#000000">1  mm </text>
        -->
    </g>
</svg>
